<svg width="364" height="139" viewBox="0 0 364 139" fill="none" xmlns="http://www.w3.org/2000/svg">
<rect y="36.3832" width="316" height="66" rx="10" transform="rotate(-6.61151 0 36.3832)" fill="#B00000"/>
<path d="M31.0358 81.1073L27.9216 54.2391L48.8236 51.8164L49.5925 58.45L37.6604 59.833L38.0569 63.2541L48.4454 62.05L49.2336 68.8505L38.8452 70.0546L39.2368 73.434L51.169 72.051L51.9378 78.6846L31.0358 81.1073ZM54.4271 78.396L51.3129 51.5279L65.8317 49.8451C68.0846 49.5839 69.9842 49.8007 71.5304 50.4953C73.1013 51.1588 74.3198 52.1874 75.186 53.5809C76.08 54.9712 76.6366 56.612 76.8559 58.5034C77.0654 60.3113 76.7918 61.9637 76.0352 63.4608C75.2753 64.9301 74.2467 66.1486 72.9496 67.1164C73.5264 67.4724 74.0423 68.0327 74.4974 68.7974L78.4582 75.6106L69.1128 76.6939L65.6387 70.7966C65.3956 70.402 65.1532 70.1341 64.9113 69.993C64.6694 69.8519 64.3121 69.8088 63.8393 69.8636L62.5459 70.0135L63.397 77.3563L54.4271 78.396ZM61.7432 63.0879L65.0391 62.7059C67.0417 62.4737 67.935 61.4259 67.719 59.5624C67.4998 57.6711 66.4584 56.8334 64.5949 57.0494L61.0904 57.4556L61.7432 63.0879ZM81.526 75.2551L78.4117 48.3869L93.765 46.6074C96.4907 46.2915 98.6664 46.7017 100.292 47.8381C101.918 48.9745 102.869 50.7386 103.146 53.1306C103.304 54.4935 103.188 55.6768 102.797 56.6805C102.434 57.681 101.881 58.5061 101.139 59.1558C102.306 59.4997 103.258 60.0518 103.994 60.8121C104.728 61.5445 105.188 62.7173 105.375 64.3305C105.668 66.8616 105.09 68.9299 103.642 70.5354C102.193 72.1408 100.022 73.1112 97.1295 73.4465L81.526 75.2551ZM88.1414 57.9141L92.5638 57.4015C94.177 57.2145 94.8997 56.3978 94.7321 54.9515C94.6515 54.2562 94.3816 53.7519 93.9225 53.4387C93.488 53.0944 92.8257 52.9739 91.9357 53.077L87.6385 53.5751L88.1414 57.9141ZM89.3261 68.1356L93.9154 67.6037C95.612 67.4071 96.3701 66.5299 96.1896 64.9724C96.0219 63.5261 95.062 62.9044 93.3097 63.1075L88.8039 63.6298L89.3261 68.1356ZM113.962 71.9183C112.794 72.0537 111.659 72.1147 110.558 72.1014C109.458 72.0881 108.372 71.9602 107.301 71.7179L106.44 64.2917C107.14 64.4924 107.901 64.6156 108.724 64.6612C109.571 64.6757 110.412 64.6346 111.246 64.5379C112.637 64.3767 113.578 63.9858 114.07 63.365C114.589 62.741 114.774 61.7754 114.622 60.4682L112.76 44.4057L121.73 43.366L123.805 61.2642C124.156 64.2959 123.494 66.7263 121.817 68.5555C120.14 70.3847 117.522 71.5057 113.962 71.9183ZM141.085 68.7746C138.581 69.0647 136.294 68.907 134.223 68.3015C132.151 67.696 130.452 66.6527 129.124 65.1717C127.825 63.6875 127.038 61.7632 126.764 59.3991L124.863 43.0028L133.833 41.9632L135.613 57.3164C135.948 60.209 137.479 61.4974 140.205 61.1814C142.93 60.8655 144.126 59.2612 143.79 56.3686L142.011 41.0154L150.981 39.9757L152.881 56.3719C153.155 58.7361 152.815 60.7908 151.862 62.5362C150.936 64.2784 149.535 65.6811 147.657 66.7444C145.806 67.8045 143.616 68.4812 141.085 68.7746ZM157.445 66.4555L154.33 39.5874L166.721 38.1512C169.531 37.8256 171.99 38.0057 174.099 38.6914C176.204 39.3493 177.916 40.6167 179.233 42.4936C180.546 44.3426 181.393 46.9082 181.774 50.1902C182.312 54.8351 181.522 58.3515 179.402 60.7394C177.28 63.0994 174.091 64.5261 169.836 65.0193L157.445 66.4555ZM165.621 58.5737L167.958 58.3029C169.098 58.1707 170.052 57.891 170.82 57.4637C171.588 57.0364 172.128 56.3397 172.438 55.3735C172.777 54.4041 172.843 53.0293 172.637 51.2492C172.43 49.4691 172.079 48.1427 171.584 47.27C171.088 46.3973 170.417 45.8408 169.572 45.6005C168.724 45.3324 167.687 45.2693 166.464 45.4112L164.127 45.682L165.621 58.5737ZM182.894 63.5057L190.085 35.4432L199.472 34.3551L212.933 60.024L203.588 61.1072L200.883 56.0087L193.665 56.8453L192.24 62.4225L182.894 63.5057ZM194.024 50.4615L199.073 49.8764L195.773 43.6629L194.024 50.4615ZM215.635 59.7108L212.521 32.8427L220.072 31.9674L230.353 43.3333L228.917 30.9422L237.887 29.9026L241.001 56.7707L233.366 57.6556L223.174 46.3218L224.605 58.6711L215.635 59.7108ZM244.567 56.3573L241.453 29.4892L253.844 28.053C256.653 27.7274 259.113 27.9075 261.222 28.5932C263.327 29.2511 265.039 30.5185 266.355 32.3954C267.669 34.2444 268.516 36.81 268.897 40.092C269.435 44.7369 268.645 48.2533 266.525 50.6412C264.403 53.0012 261.214 54.4279 256.959 54.9211L244.567 56.3573ZM252.744 48.4755L255.081 48.2047C256.221 48.0725 257.175 47.7928 257.943 47.3655C258.711 46.9383 259.25 46.2415 259.561 45.2753C259.9 44.3059 259.966 42.9311 259.76 41.151C259.553 39.3709 259.202 38.0445 258.707 37.1718C258.211 36.2991 257.54 35.7426 256.695 35.5023C255.846 35.2342 254.81 35.1711 253.586 35.313L251.25 35.5838L252.744 48.4755ZM273.133 53.0464L270.019 26.1782L290.921 23.7555L291.69 30.3891L279.758 31.7722L280.154 35.1932L290.543 33.9891L291.331 40.7896L280.942 41.9937L281.334 45.3731L293.266 43.9901L294.035 50.6237L273.133 53.0464Z" fill="white"/>
<path d="M110.918 121.176L108.908 103.838L115.258 103.102C116.488 102.959 117.531 103.044 118.385 103.357C119.238 103.664 119.905 104.139 120.386 104.781C120.866 105.418 121.155 106.165 121.255 107.023C121.339 107.745 121.277 108.37 121.069 108.898C120.861 109.419 120.551 109.856 120.14 110.206C119.733 110.551 119.273 110.822 118.758 111.019L118.778 111.188C119.357 111.149 119.94 111.271 120.527 111.551C121.12 111.826 121.633 112.256 122.066 112.84C122.5 113.425 122.769 114.166 122.873 115.063C122.976 115.949 122.859 116.769 122.523 117.523C122.193 118.271 121.619 118.901 120.803 119.413C119.987 119.919 118.907 120.25 117.564 120.406L110.918 121.176ZM113.274 118.63L117.05 118.192C118.303 118.047 119.172 117.7 119.658 117.152C120.143 116.604 120.344 115.966 120.259 115.237C120.196 114.69 120 114.204 119.67 113.779C119.34 113.353 118.903 113.035 118.358 112.824C117.819 112.612 117.199 112.546 116.499 112.627L112.63 113.076L113.274 118.63ZM112.394 111.036L115.899 110.629C116.486 110.561 117 110.387 117.443 110.107C117.891 109.826 118.229 109.467 118.459 109.029C118.693 108.584 118.778 108.082 118.713 107.523C118.63 106.806 118.309 106.235 117.751 105.807C117.192 105.38 116.394 105.227 115.355 105.347L111.782 105.761L112.394 111.036ZM134.072 109.956L134.326 112.148L126.639 113.039L126.385 110.847L134.072 109.956ZM141.312 113.183L140.937 110.095L141.377 110.044L145.92 103.941L148.951 103.59L143.768 110.539L143.37 110.585L141.312 113.183ZM139.495 117.864L137.485 100.526L140.016 100.232L142.026 117.571L139.495 117.864ZM147.707 116.912L142.334 111.272L143.873 109.3L150.814 116.552L147.707 116.912ZM158.811 115.891C157.591 116.033 156.495 115.876 155.522 115.423C154.548 114.97 153.752 114.27 153.133 113.323C152.515 112.377 152.127 111.232 151.972 109.889C151.815 108.54 151.93 107.331 152.315 106.263C152.7 105.194 153.315 104.328 154.159 103.664C155.003 103 156.034 102.597 157.253 102.456C158.472 102.314 159.569 102.47 160.542 102.924C161.516 103.377 162.312 104.08 162.931 105.032C163.551 105.984 163.939 107.135 164.095 108.484C164.251 109.827 164.136 111.03 163.75 112.093C163.364 113.156 162.749 114.019 161.905 114.683C161.061 115.347 160.03 115.75 158.811 115.891ZM158.573 113.765C159.363 113.674 159.993 113.389 160.464 112.911C160.935 112.433 161.254 111.833 161.422 111.11C161.596 110.386 161.634 109.607 161.537 108.771C161.441 107.942 161.226 107.195 160.891 106.53C160.562 105.859 160.113 105.342 159.545 104.978C158.976 104.615 158.297 104.48 157.507 104.571C156.711 104.663 156.075 104.952 155.6 105.436C155.129 105.919 154.808 106.526 154.635 107.255C154.467 107.978 154.431 108.754 154.527 109.584C154.624 110.419 154.837 111.17 155.166 111.835C155.5 112.5 155.951 113.011 156.519 113.368C157.092 113.725 157.777 113.858 158.573 113.765ZM154.547 100.873C154.152 100.919 153.788 100.812 153.455 100.554C153.121 100.289 152.932 99.9622 152.887 99.5727C152.838 99.1494 152.946 98.7793 153.213 98.4625C153.479 98.1456 153.81 97.9643 154.205 97.9185C154.628 97.8694 154.997 97.9696 155.312 98.2191C155.633 98.468 155.818 98.804 155.867 99.2273C155.912 99.6168 155.808 99.9777 155.555 100.31C155.306 100.636 154.971 100.824 154.547 100.873ZM159.525 100.296C159.13 100.342 158.766 100.235 158.433 99.9766C158.099 99.7121 157.91 99.3852 157.865 98.9957C157.816 98.5724 157.924 98.2024 158.191 97.8855C158.457 97.5686 158.788 97.3873 159.183 97.3415C159.606 97.2924 159.975 97.3926 160.29 97.6421C160.611 97.891 160.796 98.227 160.845 98.6503C160.89 99.0398 160.786 99.4007 160.533 99.7332C160.284 100.059 159.949 100.247 159.525 100.296ZM168.74 114.474L167.233 101.471L169.68 101.187L169.919 103.253L170.054 103.237C170.21 102.51 170.564 101.911 171.116 101.441C171.673 100.964 172.332 100.682 173.094 100.594C173.252 100.575 173.439 100.56 173.655 100.546C173.876 100.532 174.05 100.526 174.176 100.528L174.457 102.95C174.352 102.933 174.168 102.923 173.904 102.919C173.64 102.91 173.378 102.92 173.119 102.95C172.52 103.02 172.002 103.209 171.563 103.517C171.129 103.819 170.802 104.208 170.583 104.686C170.363 105.157 170.286 105.675 170.351 106.24L171.272 114.181L168.74 114.474ZM180.78 108.609L180.404 105.521L180.845 105.47L185.388 99.3662L188.419 99.0149L183.236 105.965L182.838 106.011L180.78 108.609ZM178.963 113.289L176.953 95.951L179.484 95.6576L181.494 112.996L178.963 113.289ZM187.175 112.338L181.802 106.697L183.341 104.726L190.282 111.978L187.175 112.338ZM198.278 111.317C197.059 111.458 195.963 111.302 194.99 110.848C194.016 110.395 193.22 109.695 192.601 108.749C191.983 107.802 191.595 106.657 191.44 105.314C191.283 103.965 191.398 102.756 191.783 101.688C192.168 100.619 192.783 99.7532 193.627 99.0891C194.471 98.425 195.502 98.0223 196.721 97.881C197.94 97.7397 199.037 97.8958 200.01 98.3492C200.983 98.8026 201.78 99.5054 202.399 100.457C203.019 101.409 203.407 102.56 203.563 103.909C203.719 105.252 203.604 106.455 203.218 107.518C202.832 108.581 202.217 109.444 201.373 110.109C200.529 110.773 199.498 111.175 198.278 111.317ZM198.041 109.191C198.831 109.099 199.461 108.814 199.932 108.337C200.403 107.859 200.722 107.258 200.89 106.535C201.064 105.812 201.102 105.032 201.005 104.197C200.909 103.367 200.694 102.62 200.359 101.955C200.03 101.284 199.581 100.767 199.013 100.404C198.444 100.041 197.765 99.9049 196.975 99.9965C196.179 100.089 195.543 100.377 195.068 100.861C194.597 101.345 194.276 101.951 194.103 102.68C193.935 103.403 193.899 104.18 193.995 105.009C194.092 105.845 194.305 106.595 194.634 107.26C194.968 107.925 195.419 108.436 195.987 108.794C196.56 109.151 197.245 109.283 198.041 109.191ZM208.208 109.9L206.701 96.8959L209.148 96.6123L209.387 98.678L209.522 98.6623C209.678 97.935 210.032 97.3363 210.584 96.8662C211.141 96.3898 211.8 96.1075 212.562 96.0192C212.72 96.0008 212.907 95.9849 213.123 95.9713C213.344 95.9571 213.518 95.9513 213.644 95.9538L213.925 98.3751C213.82 98.3586 213.636 98.3485 213.372 98.3448C213.108 98.3354 212.846 98.3457 212.587 98.3758C211.988 98.4451 211.47 98.6339 211.031 98.9422C210.597 99.2442 210.27 99.6338 210.051 100.111C209.831 100.583 209.754 101.101 209.819 101.665L210.739 109.606L208.208 109.9ZM223.762 94.9184L223.997 96.9502L216.894 97.7735L216.659 95.7417L223.762 94.9184ZM218.203 92.4054L220.734 92.112L222.16 104.413C222.217 104.904 222.333 105.265 222.508 105.497C222.683 105.722 222.892 105.867 223.133 105.93C223.38 105.988 223.642 106 223.919 105.968C224.122 105.945 224.298 105.91 224.447 105.864C224.596 105.818 224.712 105.782 224.795 105.755L225.494 107.793C225.354 107.867 225.152 107.947 224.887 108.035C224.624 108.129 224.289 108.202 223.883 108.254C223.219 108.343 222.584 108.296 221.98 108.115C221.375 107.933 220.865 107.603 220.449 107.125C220.033 106.647 219.78 106.016 219.689 105.231L218.203 92.4054Z" fill="white"/>
<rect x="254.25" y="64.8918" width="104" height="52" rx="10" transform="rotate(-6.77395 254.25 64.8918)" fill="white"/>
<path d="M270.347 73.9655L272.683 73.6881L273.769 82.8284C273.864 83.6667 273.772 84.4093 273.493 85.0562C273.213 85.6988 272.777 86.2205 272.185 86.6212C271.597 87.0172 270.886 87.2647 270.053 87.3637C269.291 87.4542 268.589 87.4002 267.948 87.2018C267.31 86.9986 266.782 86.6494 266.362 86.1542C265.943 85.659 265.686 85.0115 265.591 84.2117L267.933 83.9335C267.979 84.2843 268.091 84.5778 268.269 84.8141C268.452 85.0499 268.684 85.2196 268.967 85.3234C269.25 85.4271 269.565 85.4584 269.912 85.4172C270.288 85.3724 270.598 85.2562 270.842 85.0685C271.085 84.8765 271.256 84.6159 271.354 84.2867C271.457 83.957 271.483 83.5634 271.433 83.1058L270.347 73.9655ZM278.451 86.1859L275.938 86.4844L278.97 72.9413L281.877 72.596L288.004 85.0511L285.491 85.3497L280.791 75.4285L280.69 75.4406L278.451 86.1859ZM277.929 81.0791L284.784 80.2648L285.008 82.1563L278.153 82.9706L277.929 81.0791ZM298.855 70.5793L300.399 83.5789L298.305 83.8277L291.128 75.7006L291.02 75.7134L292.071 84.568L289.717 84.8478L288.172 71.8482L290.28 71.5979L297.451 79.7321L297.566 79.7185L296.513 70.8575L298.855 70.5793ZM312.322 74.612L312.547 76.5036L306.695 77.1987L306.47 75.3072L312.322 74.612ZM320.159 81.2318L318.615 68.2323L326.943 67.2431L327.177 69.2171L321.204 69.9266L321.623 73.4558L327.025 72.8141L327.259 74.7882L321.858 75.4298L322.514 80.9521L320.159 81.2318ZM330.632 79.9878L329.088 66.9882L337.543 65.984L337.777 67.958L331.677 68.6826L332.097 72.2117L337.758 71.5392L337.993 73.5132L332.331 74.1858L332.752 77.734L338.903 77.0034L339.138 78.9775L330.632 79.9878ZM341.489 78.6981L339.945 65.6986L344.922 65.1075C345.861 64.9959 346.659 65.0513 347.317 65.2736C347.978 65.4912 348.493 65.8355 348.862 66.3066C349.235 66.7772 349.46 67.3341 349.537 67.9773C349.599 68.5063 349.552 68.9711 349.393 69.3719C349.234 69.7684 348.997 70.1034 348.682 70.3768C348.367 70.6503 348.004 70.8629 347.593 71.0147L347.608 71.1417C348.072 71.1123 348.531 71.2015 348.985 71.4094C349.443 71.6125 349.835 71.9307 350.161 72.364C350.487 72.7973 350.689 73.3441 350.767 74.0042C350.847 74.677 350.756 75.3015 350.494 75.8776C350.232 76.4495 349.791 76.9289 349.172 77.3157C348.553 77.7025 347.746 77.955 346.751 78.0731L341.489 78.6981ZM343.611 76.4507L346.143 76.1499C346.998 76.0483 347.594 75.8123 347.932 75.4417C348.274 75.0664 348.414 74.6206 348.353 74.1044C348.307 73.7193 348.17 73.3836 347.943 73.0973C347.716 72.8068 347.416 72.5935 347.043 72.4575C346.671 72.3173 346.241 72.2761 345.754 72.3339L343.158 72.6422L343.611 76.4507ZM342.957 70.9475L345.286 70.6708C345.693 70.6225 346.05 70.505 346.358 70.3182C346.666 70.1271 346.896 69.883 347.05 69.5859C347.207 69.284 347.263 68.9426 347.218 68.5617C347.158 68.0582 346.931 67.6646 346.537 67.381C346.147 67.0969 345.605 66.996 344.911 67.0784L342.531 67.3612L342.957 70.9475ZM289.112 103.046L288.91 101.345L292.897 96.3848C293.277 95.8977 293.591 95.4678 293.838 95.095C294.086 94.7223 294.263 94.3688 294.369 94.0343C294.475 93.6998 294.507 93.3528 294.464 92.9931C294.415 92.5826 294.281 92.2424 294.06 91.9726C293.838 91.6985 293.555 91.5004 293.21 91.3783C292.865 91.2562 292.486 91.2198 292.071 91.269C291.643 91.3198 291.28 91.4531 290.979 91.6691C290.678 91.8808 290.458 92.158 290.318 92.5007C290.183 92.8429 290.142 93.2362 290.194 93.6805L287.954 93.9466C287.856 93.1215 287.959 92.3818 288.263 91.7277C288.567 91.0737 289.03 90.5403 289.65 90.1275C290.275 89.7143 291.017 89.4567 291.876 89.3547C292.747 89.2511 293.533 89.3231 294.231 89.5705C294.93 89.8179 295.495 90.2035 295.927 90.7273C296.362 91.2506 296.623 91.8762 296.71 92.6041C296.767 93.0907 296.731 93.5799 296.601 94.0717C296.47 94.5636 296.204 95.123 295.802 95.7501C295.405 96.3766 294.833 97.1462 294.087 98.0587L292.118 100.604L292.128 100.692L297.79 100.02L298.024 101.988L289.112 103.046ZM305.048 101.404C304.003 101.528 303.074 101.37 302.262 100.931C301.454 100.486 300.79 99.7859 300.269 98.8307C299.751 97.8708 299.408 96.6821 299.24 95.2645C299.076 93.8464 299.133 92.6165 299.413 91.5749C299.697 90.5284 300.179 89.6986 300.862 89.0855C301.549 88.4718 302.412 88.1031 303.453 87.9795C304.494 87.8558 305.42 88.0119 306.232 88.4476C307.043 88.8834 307.707 89.5769 308.223 90.5284C308.744 91.4793 309.088 92.6614 309.256 94.0748C309.425 95.4966 309.368 96.7349 309.086 97.7898C308.807 98.84 308.325 99.674 307.639 100.292C306.957 100.909 306.093 101.28 305.048 101.404ZM304.812 99.4175C305.624 99.321 306.218 98.845 306.593 97.9894C306.971 97.1291 307.068 95.9182 306.882 94.3567C306.76 93.3242 306.549 92.4696 306.249 91.7928C305.95 91.1159 305.583 90.6232 305.147 90.3145C304.711 90.0015 304.224 89.877 303.686 89.9408C302.878 90.0368 302.287 90.5147 301.913 91.3745C301.538 92.2301 301.44 93.4325 301.62 94.9818C301.739 96.019 301.946 96.8784 302.242 97.56C302.542 98.241 302.91 98.738 303.346 99.051C303.782 99.3597 304.27 99.4818 304.812 99.4175ZM312.136 100.311L311.934 98.6102L315.921 93.65C316.301 93.1629 316.615 92.733 316.862 92.3603C317.11 91.9875 317.287 91.634 317.393 91.2995C317.499 90.965 317.531 90.618 317.488 90.2583C317.439 89.8478 317.304 89.5076 317.083 89.2378C316.862 88.9637 316.579 88.7656 316.234 88.6435C315.889 88.5214 315.509 88.485 315.095 88.5342C314.667 88.585 314.303 88.7183 314.003 88.9343C313.702 89.146 313.481 89.4232 313.342 89.7659C313.207 90.1081 313.165 90.5014 313.218 90.9457L310.978 91.2118C310.879 90.3867 310.983 89.647 311.287 88.9929C311.591 88.3389 312.053 87.8055 312.674 87.3928C313.298 86.9795 314.04 86.7219 314.899 86.6199C315.771 86.5163 316.556 86.5883 317.255 86.8357C317.954 87.0831 318.519 87.4687 318.95 87.9925C319.386 88.5159 319.647 89.1414 319.733 89.8693C319.791 90.3559 319.755 90.8451 319.624 91.337C319.494 91.8288 319.228 92.3882 318.826 93.0153C318.428 93.6418 317.857 94.4114 317.111 95.3239L315.141 97.8687L315.152 97.9576L320.814 97.2851L321.047 99.2528L312.136 100.311ZM327.924 98.6162C327.01 98.7248 326.179 98.6647 325.431 98.436C324.687 98.2068 324.076 97.8373 323.599 97.3275C323.123 96.8177 322.828 96.1983 322.716 95.4692L325.102 95.1857C325.165 95.5344 325.318 95.8274 325.561 96.0646C325.803 96.2976 326.108 96.4652 326.477 96.5674C326.845 96.6695 327.247 96.6947 327.683 96.6429C328.148 96.5876 328.551 96.4582 328.892 96.2547C329.232 96.047 329.486 95.785 329.655 95.4689C329.823 95.1528 329.883 94.8046 329.833 94.4242C329.791 94.0302 329.648 93.6953 329.405 93.4194C329.162 93.1436 328.834 92.9445 328.42 92.8219C328.01 92.6989 327.531 92.6701 326.981 92.7354L325.832 92.8719L325.616 91.0565L326.765 90.9201C327.218 90.8663 327.604 90.741 327.924 90.5442C328.248 90.3469 328.491 90.095 328.652 89.7883C328.812 89.4775 328.868 89.134 328.819 88.7579C328.779 88.3892 328.659 88.0795 328.458 87.8288C328.26 87.5734 328 87.3876 327.677 87.2714C327.358 87.1548 326.996 87.1206 326.59 87.1688C326.192 87.2161 325.832 87.3317 325.511 87.5158C325.189 87.6999 324.941 87.9375 324.765 88.2288C324.589 88.5158 324.516 88.842 324.547 89.2074L322.281 89.4766C322.211 88.7467 322.345 88.0829 322.681 87.485C323.022 86.8824 323.512 86.3864 324.153 85.9971C324.792 85.6035 325.533 85.3567 326.375 85.2567C327.243 85.1537 328.016 85.2271 328.693 85.4771C329.375 85.7223 329.923 86.0969 330.339 86.6011C330.755 87.1053 331.003 87.6874 331.081 88.3475C331.172 89.0791 331.029 89.7183 330.652 90.2652C330.28 90.8116 329.751 91.2026 329.067 91.4384L329.079 91.54C330.008 91.5584 330.748 91.8137 331.3 92.306C331.856 92.7936 332.18 93.4439 332.272 94.2568C332.359 94.9847 332.229 95.661 331.882 96.2857C331.54 96.9057 331.026 97.4216 330.341 97.8334C329.66 98.2447 328.855 98.5056 327.924 98.6162Z" fill="black"/>
</svg>
